<?xml version="1.0" standalone="no"?>
<!DOCTYPE svg PUBLIC "-//W3C//DTD SVG 20010904//EN"
 "http://www.w3.org/TR/2001/REC-SVG-20010904/DTD/svg10.dtd">
<svg version="1.0" xmlns="http://www.w3.org/2000/svg"
 width="725.000000pt" height="725.000000pt" viewBox="0 0 725.000000 725.000000"
 preserveAspectRatio="xMidYMid meet">
<metadata>
Created by potrace 1.14, written by Peter Selinger 2001-2017
</metadata>
<g transform="translate(0.000000,725.000000) scale(0.100000,-0.100000)"
fill="#000000" stroke="none">
<path d="M1479 7246 c-2 -2 -29 -6 -59 -10 -111 -11 -253 -47 -371 -91 -561
-215 -949 -704 -1037 -1308 -9 -68 -9 -4334 1 -4412 78 -630 532 -1167 1138
-1349 246 -74 99 -70 2459 -70 1163 1 2140 3 2170 7 380 41 721 201 984 463
78 78 170 190 223 272 109 171 204 411 228 577 3 22 8 46 10 53 3 7 8 47 12
90 9 101 9 4215 0 4312 -21 207 -66 369 -159 560 -156 323 -422 590 -746 746
-113 55 -304 119 -399 134 -37 6 -81 14 -98 18 -32 7 -4349 15 -4356 8z"/>
</g>
</svg>
