<svg version="1.2" xmlns="http://www.w3.org/2000/svg" viewBox="0 0 336 81" width="207" height="50"><defs><linearGradient id="P" gradientUnits="userSpaceOnUse"/><linearGradient id="g1" x1="72.7" y1="31.7" x2="53.3" y2="65.3" href="#P"><stop offset=".6" stop-color="#ffffff"/><stop offset=".7" stop-color="#fdfdfd"/><stop offset=".8" stop-color="#f8f6f7"/><stop offset=".8" stop-color="#eeebec"/><stop offset=".9" stop-color="#e0dadd"/><stop offset=".9" stop-color="#cdc4c9"/><stop offset=".9" stop-color="#b6a8b0"/><stop offset=".9" stop-color="#9b8893"/><stop offset="1" stop-color="#7b6270"/><stop offset="1" stop-color="#573749"/><stop offset="1" stop-color="#31091f"/><stop offset="1" stop-color="#290017"/><stop offset="1" stop-color="#52384b" stop-opacity="1"/><stop offset="1" stop-color="#b9c3cf" stop-opacity=".9"/><stop offset="1" stop-color="#def5fe" stop-opacity=".8"/></linearGradient><linearGradient id="g2" x1="37.5" y1="18.4" x2="37.5" y2="56.5" href="#P"><stop offset=".1" stop-color="#30c1f7" stop-opacity="0"/><stop offset=".3" stop-color="#2fbff6" stop-opacity="0"/><stop offset=".4" stop-color="#2cbaf3" stop-opacity=".1"/><stop offset=".5" stop-color="#27b0ef" stop-opacity=".1"/><stop offset=".6" stop-color="#20a3e8" stop-opacity=".3"/><stop offset=".8" stop-color="#1792df" stop-opacity=".4"/><stop offset=".9" stop-color="#0c7ed5" stop-opacity=".6"/><stop offset="1" stop-color="#0067c9" stop-opacity=".8"/><stop offset="1" stop-color="#0570ce" stop-opacity=".6"/><stop offset="1" stop-color="#0671ce" stop-opacity=".8"/><stop offset="1" stop-color="#0570ce" stop-opacity=".7"/><stop offset="1" stop-color="#0570cd" stop-opacity=".7"/><stop offset="1" stop-color="#0570cd" stop-opacity=".5"/><stop offset="1" stop-color="#0570ce" stop-opacity=".3"/></linearGradient></defs><style>.s0{fill:#d9f5ff}.s1{fill:#6ec6ff}.s2{fill:#ffffff}.s3{fill:url(#g1)}.s4{fill:url(#g2)}</style><path fill="#ffffff" aria-label="Icereach"  d="m106.83 62v-45.51h7v45.51zm35.68-10.98l5.93 2.92q-1.66 3.97-5.28 6.35q-3.62 2.34-8.18 2.34q-6.51 0-10.92-4.72q-4.38-4.73-4.38-11.78q0-4.63 1.99-8.44q1.98-3.81 5.49-5.97q3.5-2.16 7.76-2.16q4.24 0 7.59 2.1q3.39 2.09 5.03 5.65l-5.64 3.43q-0.9-1.94-2.77-3.08q-1.84-1.15-4.21-1.15q-3.73 0-6.22 2.77q-2.45 2.72-2.45 6.85q0 4.06 2.48 6.82q2.51 2.73 6.25 2.73q2.57 0 4.56-1.23q1.98-1.24 2.97-3.43zm38.43-6.32q0 1.84-0.23 3.14h-22.25q0.55 3.88 2.83 6.07q2.31 2.19 5.84 2.19q2.48 0 4.55-1.08q2.08-1.11 3.1-2.95l5.31 3.68q-1.63 3.23-5.11 5.08q-3.44 1.8-7.97 1.8q-4.17 0-7.65-2.15q-3.47-2.19-5.52-6.03q-2.01-3.84-2.01-8.51q0-4.54 1.98-8.28q2.02-3.78 5.46-5.94q3.48-2.16 7.63-2.16q3.88 0 7.09 2q3.24 2 5.08 5.49q1.87 3.46 1.87 7.65zm-22.25-2.41h15.24q-0.26-2.98-2.33-4.86q-2.08-1.9-5.08-1.9q-2.95 0-5 1.81q-2.04 1.78-2.83 4.95zm41.9-12.73q2.22 0 3.71 0.73l-0.76 7.02q-1.69-0.8-3.59-0.8q-2.66 0-4.76 2.29q-2.07 2.28-2.07 6.22v16.98h-6.63v-31.77h6.63v4.54q0.96-2.25 3.12-3.71q2.16-1.5 4.35-1.5zm33.73 15.14q0 1.84-0.24 3.14h-22.25q0.56 3.88 2.84 6.07q2.3 2.19 5.84 2.19q2.48 0 4.55-1.08q2.07-1.11 3.1-2.95l5.31 3.68q-1.64 3.23-5.11 5.08q-3.45 1.8-7.97 1.8q-4.18 0-7.65-2.15q-3.48-2.19-5.52-6.03q-2.01-3.84-2.01-8.51q0-4.54 1.98-8.28q2.02-3.78 5.46-5.94q3.48-2.16 7.62-2.16q3.89 0 7.1 2q3.24 2 5.08 5.49q1.87 3.46 1.87 7.65zm-22.25-2.41h15.24q-0.26-2.98-2.34-4.86q-2.07-1.9-5.08-1.9q-2.95 0-4.99 1.81q-2.04 1.78-2.83 4.95zm50.1-6.47v-5.59h6.72v31.77h-6.72v-5.59q-1.6 3.02-4.23 4.64q-2.63 1.58-6.1 1.58q-3.83 0-7.04-2.19q-3.21-2.22-5.08-6.03q-1.87-3.84-1.87-8.34q0-4.51 1.87-8.32q1.87-3.81 5.08-6q3.21-2.19 7.04-2.19q3.47 0 6.1 1.62q2.63 1.62 4.23 4.64zm-8.9 19.93q3.79 0 6.33-2.76q2.57-2.8 2.57-6.92q0-4.1-2.57-6.86q-2.54-2.76-6.33-2.76q-3.71 0-6.31 2.83q-2.6 2.79-2.6 6.79q0 4.06 2.57 6.88q2.6 2.8 6.34 2.8zm44-4.73l5.93 2.92q-1.67 3.97-5.29 6.35q-3.62 2.34-8.17 2.34q-6.51 0-10.92-4.72q-4.38-4.73-4.38-11.78q0-4.63 1.98-8.44q1.99-3.81 5.49-5.97q3.51-2.16 7.77-2.16q4.23 0 7.59 2.1q3.39 2.09 5.02 5.65l-5.63 3.43q-0.91-1.94-2.78-3.08q-1.84-1.15-4.2-1.15q-3.74 0-6.22 2.77q-2.45 2.72-2.45 6.85q0 4.06 2.48 6.82q2.51 2.73 6.25 2.73q2.57 0 4.55-1.23q1.99-1.24 2.98-3.43zm26.28-21.46q5.61 0 8.88 3.84q3.27 3.84 3.27 10.48v18.12h-6.69v-17.23q0-3.75-1.96-6q-1.92-2.26-5.11-2.26q-3.3 0-5.28 2.26q-1.96 2.25-1.96 6v17.23h-6.63v-45.51h6.63v18.72q1.4-2.69 3.68-4.15q2.28-1.5 5.17-1.5z" /><path class="s0" d="m74.8 30.5v39.9l-37.5-20.1l32.2-17h0.1l5.2-2.8z" /><path class="s1" d="m74.8 30.5l-5.2 2.8h-0.1h-64l-5.3-2.9l6.4-5.2l30.9-25.1l16.7 13.6l14.1 11.5l6.5 5.3z" /><path class="s2" d="m37.3 50.3l37.5 20.1c0 1.4-0.3 2.8-0.8 4c-0.5 1.3-1.3 2.5-2.3 3.5c-1 1-2.1 1.7-3.4 2.3c-1.3 0.5-2.7 0.8-4.1 0.8h-53.4c-1.4 0-2.8-0.3-4.1-0.8c-1.3-0.6-2.4-1.3-3.4-2.3c-1-1-1.8-2.2-2.3-3.5c-0.5-1.2-0.8-2.6-0.8-4v-40l5.4 2.9z" /><path class="s1" d="m37.3 50.3l-33.3-17.9l67 0.1z" /><path class="s3" d="m37.5 50.4l37.3-20v40l-37.3-20z" /><path class="s4" d="m0.2 30.4l20.7-16.8l9.6 5.1l7-5l7 5l9.6-5.1l20.7 16.8l-37.3 20l-37.3-20z" /><path class="s1" d="" /><path class="s2" d="m46.9 20.5l-17.3-13.8l7.9-6.7l16.8 13.7l-7.4 6.8z" /><path class="s2" d="m28.3 20.4l-7.4-6.8l16.6-13.6l7.1 7.4l-16.3 13z" /></svg>