<?xml version="1.0" encoding="UTF-8"?>
<svg width="374px" height="299px" viewBox="0 0 374 299" version="1.1" xmlns="http://www.w3.org/2000/svg" xmlns:xlink="http://www.w3.org/1999/xlink">
    <!-- Generator: Sketch 52.6 (67491) - http://www.bohemiancoding.com/sketch -->
    <title>Slice</title>
    <desc>Created with Sketch.</desc>
    <g id="Page-1" stroke="none" stroke-width="1" fill="none" fill-rule="evenodd">
        <g id="hero-001" transform="translate(31.500000, 26.000000)">
            <g id="Group" opacity="0.1" transform="translate(110.000000, 84.000000)">
                <circle id="Oval" fill="#FFFFFF" fill-rule="nonzero" opacity="0.56" cx="14" cy="14" r="14"></circle>
                <polygon id="Path" points="2 2 26 2 26 26 2 26"></polygon>
                <g stroke-linecap="round" stroke-linejoin="round" transform="translate(7.000000, 6.000000)" id="Shape" stroke="#FFFFFF">
                    <path d="M11.25,4.75 C11.25,5.924 10.835,6.925 10.005,7.755 C9.175,8.585 8.174,9 7,9 C5.826,9 4.825,8.585 3.995,7.755 C3.165,6.925 2.75,5.924 2.75,4.75 C2.75,3.576 3.165,2.575 3.995,1.745 C4.825,0.915 5.826,0.5 7,0.5 C8.174,0.5 9.175,0.915 10.005,1.745 C10.835,2.575 11.25,3.576 11.25,4.75 Z M13.317,14.5 C12.056,11.833 9.95,10.5 7,10.5 C4.05,10.5 1.944,11.833 0.683,14.5"></path>
                </g>
            </g>
            <g id="Group-Copy-5" opacity="0.08" transform="translate(185.000000, 71.000000)">
                <circle id="Oval" fill="#FFFFFF" fill-rule="nonzero" opacity="0.56" cx="14" cy="14" r="14"></circle>
                <polygon id="Path" points="2 2 26 2 26 26 2 26"></polygon>
                <g id="Group" stroke-linecap="round" stroke-linejoin="round" transform="translate(7.000000, 6.000000)" stroke="#FFFFFF">
                    <path d="M11.25,4.75 C11.25,5.924 10.835,6.925 10.005,7.755 C9.175,8.585 8.174,9 7,9 C5.826,9 4.825,8.585 3.995,7.755 C3.165,6.925 2.75,5.924 2.75,4.75 C2.75,3.576 3.165,2.575 3.995,1.745 C4.825,0.915 5.826,0.5 7,0.5 C8.174,0.5 9.175,0.915 10.005,1.745 C10.835,2.575 11.25,3.576 11.25,4.75 Z M13.317,14.5 C12.056,11.833 9.95,10.5 7,10.5 C4.05,10.5 1.944,11.833 0.683,14.5" id="Shape"></path>
                </g>
            </g>
            <g id="Group-Copy-6" opacity="0.04" transform="translate(154.000000, 19.000000)">
                <circle id="Oval" fill="#FFFFFF" fill-rule="nonzero" opacity="0.56" cx="14" cy="14" r="14"></circle>
                <polygon id="Path" points="2 2 26 2 26 26 2 26"></polygon>
                <g id="Group" stroke-linecap="round" stroke-linejoin="round" transform="translate(7.000000, 6.000000)" stroke="#FFFFFF">
                    <path d="M11.25,4.75 C11.25,5.924 10.835,6.925 10.005,7.755 C9.175,8.585 8.174,9 7,9 C5.826,9 4.825,8.585 3.995,7.755 C3.165,6.925 2.75,5.924 2.75,4.75 C2.75,3.576 3.165,2.575 3.995,1.745 C4.825,0.915 5.826,0.5 7,0.5 C8.174,0.5 9.175,0.915 10.005,1.745 C10.835,2.575 11.25,3.576 11.25,4.75 Z M13.317,14.5 C12.056,11.833 9.95,10.5 7,10.5 C4.05,10.5 1.944,11.833 0.683,14.5" id="Shape"></path>
                </g>
            </g>
            <g id="Group-Copy-4" opacity="0.05" transform="translate(227.000000, 33.000000)">
                <circle id="Oval" fill="#FFFFFF" fill-rule="nonzero" opacity="0.56" cx="14" cy="14" r="14"></circle>
                <polygon id="Path" points="2 2 26 2 26 26 2 26"></polygon>
                <g id="Group" stroke-linecap="round" stroke-linejoin="round" transform="translate(7.000000, 6.000000)" stroke="#FFFFFF">
                    <path d="M11.25,4.75 C11.25,5.924 10.835,6.925 10.005,7.755 C9.175,8.585 8.174,9 7,9 C5.826,9 4.825,8.585 3.995,7.755 C3.165,6.925 2.75,5.924 2.75,4.75 C2.75,3.576 3.165,2.575 3.995,1.745 C4.825,0.915 5.826,0.5 7,0.5 C8.174,0.5 9.175,0.915 10.005,1.745 C10.835,2.575 11.25,3.576 11.25,4.75 Z M13.317,14.5 C12.056,11.833 9.95,10.5 7,10.5 C4.05,10.5 1.944,11.833 0.683,14.5" id="Shape"></path>
                </g>
            </g>
            <g id="Group-Copy" opacity="0.03" transform="translate(269.000000, 0.000000)">
                <circle id="Oval" fill="#FFFFFF" fill-rule="nonzero" opacity="0.56" cx="14" cy="14" r="14"></circle>
                <polygon id="Path" points="2 2 26 2 26 26 2 26"></polygon>
                <g id="Group" stroke-linecap="round" stroke-linejoin="round" transform="translate(7.000000, 6.000000)" stroke="#FFFFFF">
                    <path d="M11.25,4.75 C11.25,5.924 10.835,6.925 10.005,7.755 C9.175,8.585 8.174,9 7,9 C5.826,9 4.825,8.585 3.995,7.755 C3.165,6.925 2.75,5.924 2.75,4.75 C2.75,3.576 3.165,2.575 3.995,1.745 C4.825,0.915 5.826,0.5 7,0.5 C8.174,0.5 9.175,0.915 10.005,1.745 C10.835,2.575 11.25,3.576 11.25,4.75 Z M13.317,14.5 C12.056,11.833 9.95,10.5 7,10.5 C4.05,10.5 1.944,11.833 0.683,14.5" id="Shape"></path>
                </g>
            </g>
            <g id="Group" opacity="0.15" transform="translate(38.000000, 112.000000)">
                <circle id="Oval" fill="#FFFFFF" fill-rule="nonzero" opacity="0.56" cx="14" cy="14" r="14"></circle>
                <polygon id="Path" points="2 2 26 2 26 26 2 26"></polygon>
                <g stroke-linecap="round" stroke-linejoin="round" transform="translate(7.000000, 6.000000)" id="Shape" stroke="#FFFFFF">
                    <path d="M11.25,4.75 C11.25,5.924 10.835,6.925 10.005,7.755 C9.175,8.585 8.174,9 7,9 C5.826,9 4.825,8.585 3.995,7.755 C3.165,6.925 2.75,5.924 2.75,4.75 C2.75,3.576 3.165,2.575 3.995,1.745 C4.825,0.915 5.826,0.5 7,0.5 C8.174,0.5 9.175,0.915 10.005,1.745 C10.835,2.575 11.25,3.576 11.25,4.75 Z M13.317,14.5 C12.056,11.833 9.95,10.5 7,10.5 C4.05,10.5 1.944,11.833 0.683,14.5"></path>
                </g>
            </g>
            <g id="Group" opacity="0.2" transform="translate(8.000000, 161.000000)">
                <circle id="Oval" fill="#FFFFFF" fill-rule="nonzero" opacity="0.56" cx="14" cy="14" r="14"></circle>
                <polygon id="Path" points="2 2 26 2 26 26 2 26"></polygon>
                <g stroke-linecap="round" stroke-linejoin="round" transform="translate(7.000000, 6.000000)" id="Shape" stroke="#FFFFFF">
                    <path d="M11.25,4.75 C11.25,5.924 10.835,6.925 10.005,7.755 C9.175,8.585 8.174,9 7,9 C5.826,9 4.825,8.585 3.995,7.755 C3.165,6.925 2.75,5.924 2.75,4.75 C2.75,3.576 3.165,2.575 3.995,1.745 C4.825,0.915 5.826,0.5 7,0.5 C8.174,0.5 9.175,0.915 10.005,1.745 C10.835,2.575 11.25,3.576 11.25,4.75 Z M13.317,14.5 C12.056,11.833 9.95,10.5 7,10.5 C4.05,10.5 1.944,11.833 0.683,14.5"></path>
                </g>
            </g>
            <g id="Group" opacity="0.15" transform="translate(96.000000, 136.000000)">
                <circle id="Oval" fill="#FFFFFF" fill-rule="nonzero" opacity="0.56" cx="14" cy="14" r="14"></circle>
                <polygon id="Path" points="2 2 26 2 26 26 2 26"></polygon>
                <g stroke-linecap="round" stroke-linejoin="round" transform="translate(7.000000, 6.000000)" id="Shape" stroke="#FFFFFF">
                    <path d="M11.25,4.75 C11.25,5.924 10.835,6.925 10.005,7.755 C9.175,8.585 8.174,9 7,9 C5.826,9 4.825,8.585 3.995,7.755 C3.165,6.925 2.75,5.924 2.75,4.75 C2.75,3.576 3.165,2.575 3.995,1.745 C4.825,0.915 5.826,0.5 7,0.5 C8.174,0.5 9.175,0.915 10.005,1.745 C10.835,2.575 11.25,3.576 11.25,4.75 Z M13.317,14.5 C12.056,11.833 9.95,10.5 7,10.5 C4.05,10.5 1.944,11.833 0.683,14.5"></path>
                </g>
            </g>
            <g id="Group" opacity="0.1" transform="translate(227.000000, 99.000000)">
                <circle id="Oval" fill="#FFFFFF" fill-rule="nonzero" opacity="0.56" cx="14" cy="14" r="14"></circle>
                <polygon id="Path" points="2 2 26 2 26 26 2 26"></polygon>
                <g stroke-linecap="round" stroke-linejoin="round" transform="translate(7.000000, 6.000000)" id="Shape" stroke="#FFFFFF">
                    <path d="M11.25,4.75 C11.25,5.924 10.835,6.925 10.005,7.755 C9.175,8.585 8.174,9 7,9 C5.826,9 4.825,8.585 3.995,7.755 C3.165,6.925 2.75,5.924 2.75,4.75 C2.75,3.576 3.165,2.575 3.995,1.745 C4.825,0.915 5.826,0.5 7,0.5 C8.174,0.5 9.175,0.915 10.005,1.745 C10.835,2.575 11.25,3.576 11.25,4.75 Z M13.317,14.5 C12.056,11.833 9.95,10.5 7,10.5 C4.05,10.5 1.944,11.833 0.683,14.5"></path>
                </g>
            </g>
            <g id="Group" opacity="0.15" transform="translate(276.000000, 119.000000)">
                <circle id="Oval" fill="#FFFFFF" fill-rule="nonzero" opacity="0.56" cx="14" cy="14" r="14"></circle>
                <polygon id="Path" points="2 2 26 2 26 26 2 26"></polygon>
                <g stroke-linecap="round" stroke-linejoin="round" transform="translate(7.000000, 6.000000)" id="Shape" stroke="#FFFFFF">
                    <path d="M11.25,4.75 C11.25,5.924 10.835,6.925 10.005,7.755 C9.175,8.585 8.174,9 7,9 C5.826,9 4.825,8.585 3.995,7.755 C3.165,6.925 2.75,5.924 2.75,4.75 C2.75,3.576 3.165,2.575 3.995,1.745 C4.825,0.915 5.826,0.5 7,0.5 C8.174,0.5 9.175,0.915 10.005,1.745 C10.835,2.575 11.25,3.576 11.25,4.75 Z M13.317,14.5 C12.056,11.833 9.95,10.5 7,10.5 C4.05,10.5 1.944,11.833 0.683,14.5"></path>
                </g>
            </g>
            <g id="Group" opacity="0.3" transform="translate(132.000000, 180.000000)">
                <circle id="Oval" fill="#FFFFFF" fill-rule="nonzero" opacity="0.56" cx="14" cy="14" r="14"></circle>
                <polygon id="Path" points="2 2 26 2 26 26 2 26"></polygon>
                <g stroke-linecap="round" stroke-linejoin="round" transform="translate(7.000000, 6.000000)" id="Shape" stroke="#FFFFFF">
                    <path d="M11.25,4.75 C11.25,5.924 10.835,6.925 10.005,7.755 C9.175,8.585 8.174,9 7,9 C5.826,9 4.825,8.585 3.995,7.755 C3.165,6.925 2.75,5.924 2.75,4.75 C2.75,3.576 3.165,2.575 3.995,1.745 C4.825,0.915 5.826,0.5 7,0.5 C8.174,0.5 9.175,0.915 10.005,1.745 C10.835,2.575 11.25,3.576 11.25,4.75 Z M13.317,14.5 C12.056,11.833 9.95,10.5 7,10.5 C4.05,10.5 1.944,11.833 0.683,14.5"></path>
                </g>
            </g>
            <g id="Group" opacity="0.15" transform="translate(163.000000, 122.000000)">
                <circle id="Oval" fill="#FFFFFF" fill-rule="nonzero" opacity="0.56" cx="14" cy="14" r="14"></circle>
                <polygon id="Path" points="2 2 26 2 26 26 2 26"></polygon>
                <g stroke-linecap="round" stroke-linejoin="round" transform="translate(7.000000, 6.000000)" id="Shape" stroke="#FFFFFF">
                    <path d="M11.25,4.75 C11.25,5.924 10.835,6.925 10.005,7.755 C9.175,8.585 8.174,9 7,9 C5.826,9 4.825,8.585 3.995,7.755 C3.165,6.925 2.75,5.924 2.75,4.75 C2.75,3.576 3.165,2.575 3.995,1.745 C4.825,0.915 5.826,0.5 7,0.5 C8.174,0.5 9.175,0.915 10.005,1.745 C10.835,2.575 11.25,3.576 11.25,4.75 Z M13.317,14.5 C12.056,11.833 9.95,10.5 7,10.5 C4.05,10.5 1.944,11.833 0.683,14.5"></path>
                </g>
            </g>
            <g id="Group" opacity="0.2" transform="translate(218.000000, 147.000000)">
                <circle id="Oval" fill="#FFFFFF" fill-rule="nonzero" opacity="0.56" cx="14" cy="14" r="14"></circle>
                <polygon id="Path" points="2 2 26 2 26 26 2 26"></polygon>
                <g stroke-linecap="round" stroke-linejoin="round" transform="translate(7.000000, 6.000000)" id="Shape" stroke="#FFFFFF">
                    <path d="M11.25,4.75 C11.25,5.924 10.835,6.925 10.005,7.755 C9.175,8.585 8.174,9 7,9 C5.826,9 4.825,8.585 3.995,7.755 C3.165,6.925 2.75,5.924 2.75,4.75 C2.75,3.576 3.165,2.575 3.995,1.745 C4.825,0.915 5.826,0.5 7,0.5 C8.174,0.5 9.175,0.915 10.005,1.745 C10.835,2.575 11.25,3.576 11.25,4.75 Z M13.317,14.5 C12.056,11.833 9.95,10.5 7,10.5 C4.05,10.5 1.944,11.833 0.683,14.5"></path>
                </g>
            </g>
            <g id="Group" opacity="0.124679129" transform="translate(276.000000, 119.000000)">
                <circle id="Oval" fill="#FFFFFF" fill-rule="nonzero" opacity="0.56" cx="14" cy="14" r="14"></circle>
                <polygon id="Path" points="2 2 26 2 26 26 2 26"></polygon>
                <g stroke-linecap="round" stroke-linejoin="round" transform="translate(7.000000, 6.000000)" id="Shape" stroke="#FFFFFF">
                    <path d="M11.25,4.75 C11.25,5.924 10.835,6.925 10.005,7.755 C9.175,8.585 8.174,9 7,9 C5.826,9 4.825,8.585 3.995,7.755 C3.165,6.925 2.75,5.924 2.75,4.75 C2.75,3.576 3.165,2.575 3.995,1.745 C4.825,0.915 5.826,0.5 7,0.5 C8.174,0.5 9.175,0.915 10.005,1.745 C10.835,2.575 11.25,3.576 11.25,4.75 Z M13.317,14.5 C12.056,11.833 9.95,10.5 7,10.5 C4.05,10.5 1.944,11.833 0.683,14.5"></path>
                </g>
                <g stroke-linecap="round" stroke-linejoin="round" transform="translate(7.000000, 6.000000)" id="Shape" stroke="#FFFFFF">
                    <path d="M11.25,4.75 C11.25,5.924 10.835,6.925 10.005,7.755 C9.175,8.585 8.174,9 7,9 C5.826,9 4.825,8.585 3.995,7.755 C3.165,6.925 2.75,5.924 2.75,4.75 C2.75,3.576 3.165,2.575 3.995,1.745 C4.825,0.915 5.826,0.5 7,0.5 C8.174,0.5 9.175,0.915 10.005,1.745 C10.835,2.575 11.25,3.576 11.25,4.75 Z M13.317,14.5 C12.056,11.833 9.95,10.5 7,10.5 C4.05,10.5 1.944,11.833 0.683,14.5"></path>
                </g>
            </g>
            <g id="Group" opacity="0.3" transform="translate(177.000000, 213.000000)">
                <circle id="Oval" fill="#FFFFFF" fill-rule="nonzero" opacity="0.56" cx="14" cy="14" r="14"></circle>
                <polygon id="Path" points="2 2 26 2 26 26 2 26"></polygon>
                <g stroke-linecap="round" stroke-linejoin="round" transform="translate(7.000000, 6.000000)" id="Shape" stroke="#FFFFFF">
                    <path d="M11.25,4.75 C11.25,5.924 10.835,6.925 10.005,7.755 C9.175,8.585 8.174,9 7,9 C5.826,9 4.825,8.585 3.995,7.755 C3.165,6.925 2.75,5.924 2.75,4.75 C2.75,3.576 3.165,2.575 3.995,1.745 C4.825,0.915 5.826,0.5 7,0.5 C8.174,0.5 9.175,0.915 10.005,1.745 C10.835,2.575 11.25,3.576 11.25,4.75 Z M13.317,14.5 C12.056,11.833 9.95,10.5 7,10.5 C4.05,10.5 1.944,11.833 0.683,14.5"></path>
                </g>
            </g>
            <g id="Group-Copy-7" opacity="0.110500372" transform="translate(0.000000, 227.000000)">
                <circle id="Oval" fill="#FFFFFF" fill-rule="nonzero" opacity="0.56" cx="14" cy="14" r="14"></circle>
                <polygon id="Path" points="2 2 26 2 26 26 2 26"></polygon>
                <g id="Group" stroke-linecap="round" stroke-linejoin="round" transform="translate(7.000000, 6.000000)" stroke="#FFFFFF">
                    <path d="M11.25,4.75 C11.25,5.924 10.835,6.925 10.005,7.755 C9.175,8.585 8.174,9 7,9 C5.826,9 4.825,8.585 3.995,7.755 C3.165,6.925 2.75,5.924 2.75,4.75 C2.75,3.576 3.165,2.575 3.995,1.745 C4.825,0.915 5.826,0.5 7,0.5 C8.174,0.5 9.175,0.915 10.005,1.745 C10.835,2.575 11.25,3.576 11.25,4.75 Z M13.317,14.5 C12.056,11.833 9.95,10.5 7,10.5 C4.05,10.5 1.944,11.833 0.683,14.5" id="Shape"></path>
                </g>
            </g>
            <g id="Group-Copy-2" opacity="0.3" transform="translate(248.000000, 234.000000)">
                <circle id="Oval" fill="#FFFFFF" fill-rule="nonzero" opacity="0.56" cx="14" cy="14" r="14"></circle>
                <polygon id="Path" points="2 2 26 2 26 26 2 26"></polygon>
                <g id="Group" stroke-linecap="round" stroke-linejoin="round" transform="translate(7.000000, 6.000000)" stroke="#FFFFFF">
                    <path d="M11.25,4.75 C11.25,5.924 10.835,6.925 10.005,7.755 C9.175,8.585 8.174,9 7,9 C5.826,9 4.825,8.585 3.995,7.755 C3.165,6.925 2.75,5.924 2.75,4.75 C2.75,3.576 3.165,2.575 3.995,1.745 C4.825,0.915 5.826,0.5 7,0.5 C8.174,0.5 9.175,0.915 10.005,1.745 C10.835,2.575 11.25,3.576 11.25,4.75 Z M13.317,14.5 C12.056,11.833 9.95,10.5 7,10.5 C4.05,10.5 1.944,11.833 0.683,14.5" id="Shape"></path>
                </g>
            </g>
            <g id="Group-Copy-3" opacity="0.3" transform="translate(283.000000, 189.000000)">
                <circle id="Oval" fill="#FFFFFF" fill-rule="nonzero" opacity="0.56" cx="14" cy="14" r="14"></circle>
                <polygon id="Path" points="2 2 26 2 26 26 2 26"></polygon>
                <g id="Group" stroke-linecap="round" stroke-linejoin="round" transform="translate(7.000000, 6.000000)" stroke="#FFFFFF">
                    <path d="M11.25,4.75 C11.25,5.924 10.835,6.925 10.005,7.755 C9.175,8.585 8.174,9 7,9 C5.826,9 4.825,8.585 3.995,7.755 C3.165,6.925 2.75,5.924 2.75,4.75 C2.75,3.576 3.165,2.575 3.995,1.745 C4.825,0.915 5.826,0.5 7,0.5 C8.174,0.5 9.175,0.915 10.005,1.745 C10.835,2.575 11.25,3.576 11.25,4.75 Z M13.317,14.5 C12.056,11.833 9.95,10.5 7,10.5 C4.05,10.5 1.944,11.833 0.683,14.5" id="Shape"></path>
                </g>
            </g>
            <g id="Group" opacity="0.3" transform="translate(66.000000, 194.000000)">
                <circle id="Oval" fill="#FFFFFF" fill-rule="nonzero" opacity="0.56" cx="14" cy="14" r="14"></circle>
                <polygon id="Path" points="2 2 26 2 26 26 2 26"></polygon>
                <g stroke-linecap="round" stroke-linejoin="round" transform="translate(7.000000, 6.000000)" id="Shape" stroke="#FFFFFF">
                    <path d="M11.25,4.75 C11.25,5.924 10.835,6.925 10.005,7.755 C9.175,8.585 8.174,9 7,9 C5.826,9 4.825,8.585 3.995,7.755 C3.165,6.925 2.75,5.924 2.75,4.75 C2.75,3.576 3.165,2.575 3.995,1.745 C4.825,0.915 5.826,0.5 7,0.5 C8.174,0.5 9.175,0.915 10.005,1.745 C10.835,2.575 11.25,3.576 11.25,4.75 Z M13.317,14.5 C12.056,11.833 9.95,10.5 7,10.5 C4.05,10.5 1.944,11.833 0.683,14.5"></path>
                </g>
            </g>
        </g>
    </g>
</svg>